<svg version="1.1" xmlns="http://www.w3.org/2000/svg" viewBox="0 0 601.5922891424061 592.916926584364" width="601.5922891424061" height="592.916926584364">
  <!-- svg-source:excalidraw -->
  
  <defs>
    <style class="style-fonts">
      
    </style>
    
  </defs>
  <rect x="0" y="0" width="601.5922891424061" height="592.916926584364" fill="#ffffff"></rect><g stroke-linecap="round"><g transform="translate(28.876610357831396 10) rotate(0 0.5454577102516396 276.4920597705513)"><path d="M0 0 C0.43 217.61, 0.86 435.23, 1.09 552.98 M0 0 C0.38 190.35, 0.75 380.69, 1.09 552.98" stroke="#1e1e1e" stroke-width="4" fill="none"></path></g></g><mask></mask><g stroke-linecap="round"><g transform="translate(29.167537985365925 561.384082920009) rotate(0 280.3999938964844 -2.399993896484375)"><path d="M0 0 C158.34 -1.36, 316.68 -2.71, 560.8 -4.8 M0 0 C118.27 -1.01, 236.54 -2.02, 560.8 -4.8" stroke="#1e1e1e" stroke-width="4" fill="none"></path></g></g><mask></mask><g stroke-linecap="round" transform="translate(30.036741299554706 75.67138533501227) rotate(0 107.0383112824311 1.5818427041171361)"><path d="M0 0 C55.99 0, 111.97 0, 214.08 0 M0 0 C61.79 0, 123.57 0, 214.08 0 M214.08 0 C214.08 1.06, 214.08 2.13, 214.08 3.16 M214.08 0 C214.08 1.09, 214.08 2.18, 214.08 3.16 M214.08 3.16 C128.61 3.16, 43.14 3.16, 0 3.16 M214.08 3.16 C137.98 3.16, 61.88 3.16, 0 3.16 M0 3.16 C0 1.98, 0 0.8, 0 0 M0 3.16 C0 2.14, 0 1.12, 0 0" stroke="#1e1e1e" stroke-width="4" fill="none"></path></g><g stroke-linecap="round" transform="translate(221.9674453214493 61.962034966147456) rotate(0 2.109137014970429 25.83683791939123)"><path d="M0 0 C1.65 0, 3.31 0, 4.22 0 M0 0 C1.28 0, 2.56 0, 4.22 0 M4.22 0 C4.22 17.3, 4.22 34.6, 4.22 51.67 M4.22 0 C4.22 19.88, 4.22 39.77, 4.22 51.67 M4.22 51.67 C3.32 51.67, 2.42 51.67, 0 51.67 M4.22 51.67 C3.3 51.67, 2.38 51.67, 0 51.67 M0 51.67 C0 34.64, 0 17.61, 0 0 M0 51.67 C0 38.57, 0 25.46, 0 0" stroke="#1e1e1e" stroke-width="4" fill="none"></path></g><g stroke-linecap="round" transform="translate(216.6946228982447 67.2348573893521) rotate(0 7.381959438175045 8.963802142292138)"><path d="M14.76 8.96 C14.76 9.48, 14.73 10.01, 14.65 10.52 C14.58 11.03, 14.46 11.54, 14.32 12.03 C14.17 12.52, 13.99 13, 13.77 13.45 C13.56 13.9, 13.31 14.33, 13.04 14.73 C12.76 15.12, 12.45 15.5, 12.13 15.83 C11.8 16.16, 11.44 16.47, 11.07 16.73 C10.7 16.99, 10.31 17.21, 9.91 17.39 C9.51 17.56, 9.08 17.7, 8.66 17.79 C8.24 17.88, 7.81 17.93, 7.38 17.93 C6.95 17.93, 6.52 17.88, 6.1 17.79 C5.68 17.7, 5.26 17.56, 4.86 17.39 C4.46 17.21, 4.06 16.99, 3.69 16.73 C3.32 16.47, 2.96 16.16, 2.64 15.83 C2.31 15.5, 2 15.12, 1.73 14.73 C1.45 14.33, 1.2 13.9, 0.99 13.45 C0.78 13, 0.59 12.52, 0.45 12.03 C0.3 11.54, 0.19 11.03, 0.11 10.52 C0.04 10.01, 0 9.48, 0 8.96 C0 8.44, 0.04 7.92, 0.11 7.41 C0.19 6.9, 0.3 6.39, 0.45 5.9 C0.59 5.41, 0.78 4.93, 0.99 4.48 C1.2 4.03, 1.45 3.6, 1.73 3.2 C2 2.8, 2.31 2.43, 2.64 2.1 C2.96 1.76, 3.32 1.46, 3.69 1.2 C4.06 0.94, 4.46 0.72, 4.86 0.54 C5.26 0.36, 5.68 0.23, 6.1 0.14 C6.52 0.05, 6.95 0, 7.38 0 C7.81 0, 8.24 0.05, 8.66 0.14 C9.08 0.23, 9.51 0.36, 9.91 0.54 C10.31 0.72, 10.7 0.94, 11.07 1.2 C11.44 1.46, 11.8 1.76, 12.13 2.1 C12.45 2.43, 12.76 2.8, 13.04 3.2 C13.31 3.6, 13.56 4.03, 13.77 4.48 C13.99 4.93, 14.17 5.41, 14.32 5.9 C14.46 6.39, 14.58 6.9, 14.65 7.41 C14.73 7.92, 14.75 8.7, 14.76 8.96 C14.78 9.22, 14.78 8.7, 14.76 8.96" stroke="#1e1e1e" stroke-width="4" fill="none"></path></g><g stroke-linecap="round"><g transform="translate(27.927644513026735 64.07117198111783) rotate(0 9.491056224702902 5.800106676947223)"><path d="M0 0 C5.18 3.17, 10.37 6.34, 18.98 11.6 M0 0 C4.13 2.52, 8.26 5.05, 18.98 11.6" stroke="#1e1e1e" stroke-width="4" fill="none"></path></g></g><mask></mask><g stroke-linecap="round"><g transform="translate(28.98219290629072 93.5989695053753) rotate(0 7.909233634806924 -8.96379208518151)"><path d="M0 0 C5.09 -5.76, 10.17 -11.53, 15.82 -17.93 M0 0 C4.73 -5.36, 9.46 -10.72, 15.82 -17.93" stroke="#1e1e1e" stroke-width="4" fill="none"></path></g></g><mask></mask><g stroke-linecap="round"><g transform="translate(30.036741299554706 557.6073628616045) rotate(0 -10.018370649777353 9.491096453145417)"><path d="M0 0 C-5.14 4.87, -10.27 9.73, -20.04 18.98 M0 0 C-6.46 6.12, -12.93 12.25, -20.04 18.98" stroke="#1e1e1e" stroke-width="4" fill="none"></path></g></g><mask></mask><g stroke-linecap="round"><g transform="translate(156.05720525983384 563.934733678073) rotate(0 -10.018370649777353 9.491096453145417)"><path d="M0 0 C-7.53 7.13, -15.06 14.27, -20.04 18.98 M0 0 C-6.81 6.45, -13.62 12.9, -20.04 18.98" stroke="#1e1e1e" stroke-width="4" fill="none"></path></g></g><mask></mask><g stroke-linecap="round"><g transform="translate(227.76754194128603 561.8256368915453) rotate(0 -10.018370649777353 9.491096453145417)"><path d="M0 0 C-7.97 7.55, -15.93 15.09, -20.04 18.98 M0 0 C-6.24 5.92, -12.49 11.83, -20.04 18.98" stroke="#1e1e1e" stroke-width="4" fill="none"></path></g></g><mask></mask><g stroke-linecap="round"><g transform="translate(285.7686690534224 562.880185284809) rotate(0 -10.018370649777353 9.491096453145417)"><path d="M0 0 C-6.05 5.73, -12.1 11.46, -20.04 18.98 M0 0 C-4.69 4.44, -9.38 8.89, -20.04 18.98" stroke="#1e1e1e" stroke-width="4" fill="none"></path></g></g><mask></mask><g stroke-linecap="round"><g transform="translate(330.0603452255873 559.7164596481324) rotate(0 -10.018370649777353 9.491096453145417)"><path d="M0 0 C-7.5 7.11, -15.01 14.22, -20.04 18.98 M0 0 C-5.52 5.23, -11.03 10.45, -20.04 18.98" stroke="#1e1e1e" stroke-width="4" fill="none"></path></g></g><mask></mask><g stroke-linecap="round"><g transform="translate(382.78856945763323 560.7710884982815) rotate(0 -10.018370649777353 9.491096453145417)"><path d="M0 0 C-6.14 5.82, -12.28 11.64, -20.04 18.98 M0 0 C-4.69 4.44, -9.38 8.88, -20.04 18.98" stroke="#1e1e1e" stroke-width="4" fill="none"></path></g></g><mask></mask><g stroke-linecap="round"><g transform="translate(426.0256972365346 559.7164596481323) rotate(0 -10.018370649777353 9.491096453145417)"><path d="M0 0 C-4.75 4.5, -9.5 9, -20.04 18.98 M0 0 C-5.01 4.75, -10.02 9.49, -20.04 18.98" stroke="#1e1e1e" stroke-width="4" fill="none"></path></g></g><mask></mask><g stroke-linecap="round"><g transform="translate(461.8809058057029 560.7710884982814) rotate(0 -10.018370649777353 9.491096453145417)"><path d="M0 0 C-5.96 5.65, -11.92 11.29, -20.04 18.98 M0 0 C-4.18 3.96, -8.36 7.92, -20.04 18.98" stroke="#1e1e1e" stroke-width="4" fill="none"></path></g></g><mask></mask><g stroke-linecap="round"><g transform="translate(505.11803358460406 560.7710080413963) rotate(0 -10.018370649777353 9.491096453145417)"><path d="M0 0 C-4.69 4.44, -9.38 8.89, -20.04 18.98 M0 0 C-6.22 5.89, -12.44 11.79, -20.04 18.98" stroke="#1e1e1e" stroke-width="4" fill="none"></path></g></g><mask></mask><g stroke-linecap="round"><g transform="translate(552.5735158503308 560.7710080413963) rotate(0 -10.018370649777353 9.491096453145417)"><path d="M0 0 C-5.75 5.45, -11.5 10.89, -20.04 18.98 M0 0 C-7.64 7.24, -15.28 14.48, -20.04 18.98" stroke="#1e1e1e" stroke-width="4" fill="none"></path></g></g><mask></mask><g stroke-linecap="round"><g transform="translate(591.5922891424061 559.7165401050174) rotate(0 -10.018370649777353 9.491096453145417)"><path d="M0 0 C-5 4.73, -9.99 9.47, -20.04 18.98 M0 0 C-7.11 6.74, -14.23 13.48, -20.04 18.98" stroke="#1e1e1e" stroke-width="4" fill="none"></path></g></g><mask></mask><g stroke-linecap="round"><g transform="translate(68.52832085188288 561.8256368915454) rotate(0 -10.018370649777353 9.491096453145417)"><path d="M0 0 C-7.24 6.86, -14.48 13.72, -20.04 18.98 M0 0 C-5.61 5.31, -11.21 10.62, -20.04 18.98" stroke="#1e1e1e" stroke-width="4" fill="none"></path></g></g><mask></mask><g stroke-linecap="round"><g transform="translate(107.54725505772831 563.9347336780731) rotate(0 -10.018370649777353 9.491096453145417)"><path d="M0 0 C-7.12 6.74, -14.23 13.48, -20.04 18.98 M0 0 C-4.59 4.35, -9.18 8.7, -20.04 18.98" stroke="#1e1e1e" stroke-width="4" fill="none"></path></g></g><mask></mask><g stroke-linecap="round" transform="translate(185.0577688159019 116.7993760989429) rotate(0 39.018893977402854 47.45540180884174)"><path d="M78.04 47.46 C78.04 49.71, 77.9 51.98, 77.64 54.21 C77.38 56.44, 76.98 58.67, 76.46 60.83 C75.94 62.99, 75.28 65.12, 74.51 67.17 C73.74 69.22, 72.84 71.22, 71.84 73.11 C70.84 75.01, 69.72 76.83, 68.51 78.53 C67.3 80.23, 65.97 81.85, 64.57 83.32 C63.17 84.79, 61.67 86.16, 60.11 87.38 C58.56 88.59, 56.91 89.69, 55.23 90.62 C53.54 91.56, 51.79 92.35, 50.01 92.99 C48.24 93.62, 46.4 94.11, 44.57 94.43 C42.74 94.75, 40.87 94.91, 39.02 94.91 C37.17 94.91, 35.3 94.75, 33.47 94.43 C31.63 94.11, 29.8 93.62, 28.03 92.99 C26.25 92.35, 24.49 91.56, 22.81 90.62 C21.13 89.69, 19.48 88.59, 17.92 87.38 C16.37 86.16, 14.87 84.79, 13.47 83.32 C12.07 81.85, 10.74 80.23, 9.53 78.53 C8.32 76.83, 7.19 75.01, 6.19 73.11 C5.19 71.22, 4.29 69.22, 3.53 67.17 C2.76 65.12, 2.1 62.99, 1.58 60.83 C1.06 58.67, 0.66 56.44, 0.4 54.21 C0.13 51.98, 0 49.71, 0 47.46 C0 45.2, 0.13 42.93, 0.4 40.7 C0.66 38.47, 1.06 36.25, 1.58 34.09 C2.1 31.93, 2.76 29.79, 3.53 27.74 C4.29 25.69, 5.19 23.69, 6.19 21.8 C7.19 19.91, 8.32 18.08, 9.53 16.38 C10.74 14.68, 12.07 13.07, 13.47 11.59 C14.87 10.12, 16.37 8.75, 17.92 7.53 C19.48 6.32, 21.13 5.22, 22.81 4.29 C24.49 3.35, 26.25 2.56, 28.03 1.92 C29.8 1.29, 31.63 0.8, 33.47 0.48 C35.3 0.16, 37.17 0, 39.02 0 C40.87 0, 42.74 0.16, 44.57 0.48 C46.4 0.8, 48.24 1.29, 50.01 1.92 C51.79 2.56, 53.54 3.35, 55.23 4.29 C56.91 5.22, 58.56 6.32, 60.11 7.53 C61.67 8.75, 63.17 10.12, 64.57 11.59 C65.97 13.07, 67.3 14.68, 68.51 16.38 C69.72 18.08, 70.84 19.91, 71.84 21.8 C72.84 23.69, 73.74 25.69, 74.51 27.74 C75.28 29.79, 75.94 31.93, 76.46 34.09 C76.98 36.25, 77.38 38.47, 77.64 40.7 C77.9 42.93, 77.97 46.33, 78.04 47.46 C78.1 48.58, 78.1 46.33, 78.04 47.46" stroke="#1e1e1e" stroke-width="2" fill="none"></path></g><g stroke-linecap="round"><g transform="translate(223.02207417159843 211.71021994506896) rotate(0 0.5272339681894209 46.92808738376718)"><path d="M0 0 C0.34 30.63, 0.69 61.26, 1.05 93.86 M0 0 C0.31 27.96, 0.63 55.92, 1.05 93.86" stroke="#1e1e1e" stroke-width="2" fill="none"></path></g></g><mask></mask><g stroke-linecap="round"><g transform="translate(223.02207417159843 224.36496157800605) rotate(0 -23.200426707788893 25.83683791939123)"><path d="M0 0 C-6.07 4.34, -12.15 8.68, -29.53 21.09 M0 0 C-11.52 8.23, -23.04 16.46, -29.53 21.09 M-29.53 21.09 C-33.11 27.59, -36.7 34.08, -46.4 51.67 M-29.53 21.09 C-34.21 29.58, -38.89 38.07, -46.4 51.67" stroke="#1e1e1e" stroke-width="2" fill="none"></path></g></g><mask></mask><g stroke-linecap="round"><g transform="translate(270.4775966657676 225.94682439634443) rotate(0 -22.6731525111569 22.67315251115693)"><path d="M-46.4 0 C-36.17 6.27, -25.93 12.55, -16.2 18.51 M-46.4 0 C-40.02 3.91, -33.63 7.83, -16.2 18.51 M-16.2 18.51 C-9.48 28.96, -2.76 39.42, 1.05 45.35 M-16.2 18.51 C-10.05 28.07, -3.9 37.64, 1.05 45.35" stroke="#1e1e1e" stroke-width="2" fill="none"></path></g></g><mask></mask><g stroke-linecap="round"><g transform="translate(224.07670302174756 304.511886547782) rotate(0 -16.873055891320405 31.63697476767038)"><path d="M0 0 C-8.9 16.69, -17.8 33.37, -33.75 63.27 M0 0 C-7.81 14.64, -15.61 29.27, -33.75 63.27" stroke="#1e1e1e" stroke-width="2" fill="none"></path></g></g><mask></mask><g stroke-linecap="round"><g transform="translate(223.7291410161896 305.11165472686895) rotate(0 17.929814236411573 29.687066808113713)"><path d="M0 0 C7.44 12.31, 14.87 24.62, 35.86 59.37 M0 0 C10.25 16.97, 20.5 33.95, 35.86 59.37" stroke="#1e1e1e" stroke-width="2" fill="none"></path></g></g><mask></mask><g transform="translate(208.96260585839696 150.21819965965642) rotate(0 0.00004999999998744897 0.00005000000000165983)" stroke="none"><path fill="#1e1e1e" d="M 3.14,-3.14 Q 3.14,-3.14 3.55,-2.55 3.97,-1.97 4.18,-1.28 4.40,-0.59 4.38,0.11 4.36,0.83 4.11,1.51 3.86,2.18 3.41,2.74 2.96,3.30 2.36,3.69 1.75,4.08 1.05,4.25 0.36,4.42 -0.35,4.36 -1.07,4.31 -1.73,4.02 -2.39,3.74 -2.92,3.26 -3.46,2.78 -3.81,2.15 -4.16,1.53 -4.30,0.82 -4.43,0.11 -4.34,-0.59 -4.24,-1.30 -3.92,-1.94 -3.60,-2.59 -3.09,-3.09 -2.59,-3.60 -1.94,-3.92 -1.30,-4.24 -0.59,-4.34 0.12,-4.43 0.82,-4.30 1.53,-4.16 2.15,-3.81 2.78,-3.46 3.26,-2.92 3.74,-2.39 4.02,-1.73 4.31,-1.07 4.36,-0.35 4.42,0.36 4.25,1.05 4.07,1.75 3.69,2.36 3.30,2.96 2.74,3.41 2.18,3.86 1.51,4.11 0.83,4.36 0.11,4.38 -0.60,4.40 -1.28,4.18 -1.97,3.97 -2.55,3.55 -3.14,3.13 -3.14,3.14 -3.14,3.14 -3.47,2.71 -3.80,2.29 -4.02,1.80 -4.24,1.32 -4.33,0.79 -4.43,0.26 -4.40,-0.26 -4.36,-0.80 -4.20,-1.31 -4.04,-1.82 -3.77,-2.28 -3.49,-2.73 -3.11,-3.11 -2.73,-3.49 -2.28,-3.77 -1.82,-4.05 -1.31,-4.20 -0.80,-4.36 -0.26,-4.40 0.26,-4.43 0.79,-4.33 1.32,-4.24 1.80,-4.02 2.29,-3.80 2.71,-3.47 3.14,-3.14 3.14,-3.14 L 3.14,-3.14 Z"></path></g><g transform="translate(237.5394728962608 149.10841451080313) rotate(0 0.00004999999998744897 0.00005000000000165983)" stroke="none"><path fill="#1e1e1e" d="M 3.14,-3.14 Q 3.14,-3.14 3.55,-2.55 3.97,-1.97 4.18,-1.28 4.40,-0.59 4.38,0.11 4.36,0.83 4.11,1.51 3.86,2.18 3.41,2.74 2.96,3.30 2.36,3.69 1.75,4.08 1.05,4.25 0.36,4.42 -0.35,4.36 -1.07,4.31 -1.73,4.02 -2.39,3.74 -2.92,3.26 -3.46,2.78 -3.81,2.15 -4.16,1.53 -4.30,0.82 -4.43,0.11 -4.34,-0.59 -4.24,-1.30 -3.92,-1.94 -3.60,-2.59 -3.09,-3.09 -2.59,-3.60 -1.94,-3.92 -1.30,-4.24 -0.59,-4.34 0.12,-4.43 0.82,-4.30 1.53,-4.16 2.15,-3.81 2.78,-3.46 3.26,-2.92 3.74,-2.39 4.02,-1.73 4.31,-1.07 4.36,-0.35 4.42,0.36 4.25,1.05 4.07,1.75 3.69,2.36 3.30,2.96 2.74,3.41 2.18,3.86 1.51,4.11 0.83,4.36 0.11,4.38 -0.60,4.40 -1.28,4.18 -1.97,3.97 -2.55,3.55 -3.14,3.13 -3.14,3.14 -3.14,3.14 -3.47,2.71 -3.80,2.29 -4.02,1.80 -4.24,1.32 -4.33,0.79 -4.43,0.26 -4.40,-0.26 -4.36,-0.80 -4.20,-1.31 -4.04,-1.82 -3.77,-2.28 -3.49,-2.73 -3.11,-3.11 -2.73,-3.49 -2.28,-3.77 -1.82,-4.05 -1.31,-4.20 -0.80,-4.36 -0.26,-4.40 0.26,-4.43 0.79,-4.33 1.32,-4.24 1.80,-4.02 2.29,-3.80 2.71,-3.47 3.14,-3.14 3.14,-3.14 L 3.14,-3.14 Z"></path></g><g stroke-opacity="0.9" fill-opacity="0.9" transform="translate(214.61477944699402 193.88241097228763) rotate(0 9.845220735835653 -4.0435725626994525)" stroke="none"><path fill="#1e1e1e" d="M -2.47,-0.70 Q -2.47,-0.70 -2.31,-1.43 -2.15,-2.15 -1.76,-3.17 -1.38,-4.19 -0.80,-5.40 -0.21,-6.62 0.57,-7.75 1.35,-8.88 2.61,-9.76 3.87,-10.64 4.92,-10.94 5.97,-11.24 7.16,-11.35 8.35,-11.46 9.49,-11.50 10.62,-11.54 11.96,-11.58 13.29,-11.62 14.61,-11.42 15.93,-11.22 16.94,-10.70 17.94,-10.17 19.27,-8.95 20.59,-7.72 22.03,-5.39 23.47,-3.06 23.58,-2.48 23.70,-1.90 23.63,-1.31 23.56,-0.72 23.30,-0.18 23.04,0.34 22.63,0.77 22.21,1.19 21.69,1.46 21.16,1.73 20.57,1.82 19.98,1.91 19.40,1.80 18.81,1.70 18.29,1.41 17.77,1.12 17.37,0.69 16.97,0.25 16.73,-0.28 16.49,-0.82 16.43,-1.42 16.38,-2.01 16.51,-2.58 16.65,-3.16 16.96,-3.67 17.28,-4.17 17.73,-4.55 18.19,-4.93 18.75,-5.14 19.30,-5.35 19.90,-5.37 20.49,-5.39 21.06,-5.23 21.63,-5.06 22.11,-4.72 22.60,-4.38 22.95,-3.90 23.30,-3.42 23.49,-2.86 23.67,-2.29 23.66,-1.70 23.65,-1.10 23.45,-0.54 23.25,0.00 22.89,0.47 22.52,0.94 22.02,1.26 21.53,1.59 20.95,1.74 20.38,1.89 19.79,1.85 19.19,1.81 18.65,1.58 18.10,1.35 17.65,0.96 17.20,0.57 16.91,0.06 16.61,-0.45 16.61,-0.45 16.61,-0.45 16.05,-1.67 15.49,-2.89 14.11,-3.72 12.73,-4.56 11.49,-4.59 10.25,-4.63 9.15,-4.85 8.05,-5.07 6.87,-4.76 5.69,-4.44 5.04,-3.56 4.38,-2.68 3.67,-1.68 2.96,-0.67 2.72,0.01 2.47,0.70 2.35,0.99 2.23,1.28 2.05,1.53 1.86,1.77 1.62,1.97 1.38,2.17 1.10,2.30 0.82,2.44 0.52,2.50 0.21,2.56 -0.09,2.55 -0.40,2.54 -0.70,2.46 -1.00,2.37 -1.27,2.22 -1.54,2.06 -1.76,1.85 -1.99,1.63 -2.15,1.37 -2.32,1.11 -2.42,0.81 -2.52,0.52 -2.55,0.21 -2.57,-0.09 -2.52,-0.40 -2.47,-0.70 -2.47,-0.70 L -2.47,-0.70 Z"></path></g></svg>