<svg version="1.1" xmlns="http://www.w3.org/2000/svg" viewBox="0 0 601.5922891424061 592.916926584364" width="601.5922891424061" height="592.916926584364">
  <!-- svg-source:excalidraw -->
  
  <defs>
    <style class="style-fonts">
      
    </style>
    
  </defs>
  <rect x="0" y="0" width="601.5922891424061" height="592.916926584364" fill="#ffffff"></rect><g stroke-linecap="round"><g transform="translate(28.876610357831396 10) rotate(0 0.5454577102516396 276.4920597705513)"><path d="M0 0 C0.43 217.61, 0.86 435.23, 1.09 552.98 M0 0 C0.38 190.35, 0.75 380.69, 1.09 552.98" stroke="#1e1e1e" stroke-width="4" fill="none"></path></g></g><mask></mask><g stroke-linecap="round"><g transform="translate(29.167537985365925 561.384082920009) rotate(0 280.3999938964844 -2.399993896484375)"><path d="M0 0 C158.34 -1.36, 316.68 -2.71, 560.8 -4.8 M0 0 C118.27 -1.01, 236.54 -2.02, 560.8 -4.8" stroke="#1e1e1e" stroke-width="4" fill="none"></path></g></g><mask></mask><g stroke-linecap="round" transform="translate(30.036741299554706 75.67138533501227) rotate(0 107.0383112824311 1.5818427041171361)"><path d="M0 0 C55.99 0, 111.97 0, 214.08 0 M0 0 C61.79 0, 123.57 0, 214.08 0 M214.08 0 C214.08 1.06, 214.08 2.13, 214.08 3.16 M214.08 0 C214.08 1.09, 214.08 2.18, 214.08 3.16 M214.08 3.16 C128.61 3.16, 43.14 3.16, 0 3.16 M214.08 3.16 C137.98 3.16, 61.88 3.16, 0 3.16 M0 3.16 C0 1.98, 0 0.8, 0 0 M0 3.16 C0 2.14, 0 1.12, 0 0" stroke="#1e1e1e" stroke-width="4" fill="none"></path></g><g stroke-linecap="round" transform="translate(221.9674453214493 61.962034966147456) rotate(0 2.109137014970429 25.83683791939123)"><path d="M0 0 C1.65 0, 3.31 0, 4.22 0 M0 0 C1.28 0, 2.56 0, 4.22 0 M4.22 0 C4.22 17.3, 4.22 34.6, 4.22 51.67 M4.22 0 C4.22 19.88, 4.22 39.77, 4.22 51.67 M4.22 51.67 C3.32 51.67, 2.42 51.67, 0 51.67 M4.22 51.67 C3.3 51.67, 2.38 51.67, 0 51.67 M0 51.67 C0 34.64, 0 17.61, 0 0 M0 51.67 C0 38.57, 0 25.46, 0 0" stroke="#1e1e1e" stroke-width="4" fill="none"></path></g><g stroke-linecap="round" transform="translate(216.6946228982447 67.2348573893521) rotate(0 7.381959438175045 8.963802142292138)"><path d="M14.76 8.96 C14.76 9.48, 14.73 10.01, 14.65 10.52 C14.58 11.03, 14.46 11.54, 14.32 12.03 C14.17 12.52, 13.99 13, 13.77 13.45 C13.56 13.9, 13.31 14.33, 13.04 14.73 C12.76 15.12, 12.45 15.5, 12.13 15.83 C11.8 16.16, 11.44 16.47, 11.07 16.73 C10.7 16.99, 10.31 17.21, 9.91 17.39 C9.51 17.56, 9.08 17.7, 8.66 17.79 C8.24 17.88, 7.81 17.93, 7.38 17.93 C6.95 17.93, 6.52 17.88, 6.1 17.79 C5.68 17.7, 5.26 17.56, 4.86 17.39 C4.46 17.21, 4.06 16.99, 3.69 16.73 C3.32 16.47, 2.96 16.16, 2.64 15.83 C2.31 15.5, 2 15.12, 1.73 14.73 C1.45 14.33, 1.2 13.9, 0.99 13.45 C0.78 13, 0.59 12.52, 0.45 12.03 C0.3 11.54, 0.19 11.03, 0.11 10.52 C0.04 10.01, 0 9.48, 0 8.96 C0 8.44, 0.04 7.92, 0.11 7.41 C0.19 6.9, 0.3 6.39, 0.45 5.9 C0.59 5.41, 0.78 4.93, 0.99 4.48 C1.2 4.03, 1.45 3.6, 1.73 3.2 C2 2.8, 2.31 2.43, 2.64 2.1 C2.96 1.76, 3.32 1.46, 3.69 1.2 C4.06 0.94, 4.46 0.72, 4.86 0.54 C5.26 0.36, 5.68 0.23, 6.1 0.14 C6.52 0.05, 6.95 0, 7.38 0 C7.81 0, 8.24 0.05, 8.66 0.14 C9.08 0.23, 9.51 0.36, 9.91 0.54 C10.31 0.72, 10.7 0.94, 11.07 1.2 C11.44 1.46, 11.8 1.76, 12.13 2.1 C12.45 2.43, 12.76 2.8, 13.04 3.2 C13.31 3.6, 13.56 4.03, 13.77 4.48 C13.99 4.93, 14.17 5.41, 14.32 5.9 C14.46 6.39, 14.58 6.9, 14.65 7.41 C14.73 7.92, 14.75 8.7, 14.76 8.96 C14.78 9.22, 14.78 8.7, 14.76 8.96" stroke="#1e1e1e" stroke-width="4" fill="none"></path></g><g stroke-linecap="round"><g transform="translate(27.927644513026735 64.07117198111783) rotate(0 9.491056224702902 5.800106676947223)"><path d="M0 0 C5.18 3.17, 10.37 6.34, 18.98 11.6 M0 0 C4.13 2.52, 8.26 5.05, 18.98 11.6" stroke="#1e1e1e" stroke-width="4" fill="none"></path></g></g><mask></mask><g stroke-linecap="round"><g transform="translate(28.98219290629072 93.5989695053753) rotate(0 7.909233634806924 -8.96379208518151)"><path d="M0 0 C5.09 -5.76, 10.17 -11.53, 15.82 -17.93 M0 0 C4.73 -5.36, 9.46 -10.72, 15.82 -17.93" stroke="#1e1e1e" stroke-width="4" fill="none"></path></g></g><mask></mask><g stroke-linecap="round"><g transform="translate(30.036741299554706 557.6073628616045) rotate(0 -10.018370649777353 9.491096453145417)"><path d="M0 0 C-5.14 4.87, -10.27 9.73, -20.04 18.98 M0 0 C-6.46 6.12, -12.93 12.25, -20.04 18.98" stroke="#1e1e1e" stroke-width="4" fill="none"></path></g></g><mask></mask><g stroke-linecap="round"><g transform="translate(156.05720525983384 563.934733678073) rotate(0 -10.018370649777353 9.491096453145417)"><path d="M0 0 C-7.53 7.13, -15.06 14.27, -20.04 18.98 M0 0 C-6.81 6.45, -13.62 12.9, -20.04 18.98" stroke="#1e1e1e" stroke-width="4" fill="none"></path></g></g><mask></mask><g stroke-linecap="round"><g transform="translate(227.76754194128603 561.8256368915453) rotate(0 -10.018370649777353 9.491096453145417)"><path d="M0 0 C-7.97 7.55, -15.93 15.09, -20.04 18.98 M0 0 C-6.24 5.92, -12.49 11.83, -20.04 18.98" stroke="#1e1e1e" stroke-width="4" fill="none"></path></g></g><mask></mask><g stroke-linecap="round"><g transform="translate(285.7686690534224 562.880185284809) rotate(0 -10.018370649777353 9.491096453145417)"><path d="M0 0 C-6.05 5.73, -12.1 11.46, -20.04 18.98 M0 0 C-4.69 4.44, -9.38 8.89, -20.04 18.98" stroke="#1e1e1e" stroke-width="4" fill="none"></path></g></g><mask></mask><g stroke-linecap="round"><g transform="translate(330.0603452255873 559.7164596481324) rotate(0 -10.018370649777353 9.491096453145417)"><path d="M0 0 C-7.5 7.11, -15.01 14.22, -20.04 18.98 M0 0 C-5.52 5.23, -11.03 10.45, -20.04 18.98" stroke="#1e1e1e" stroke-width="4" fill="none"></path></g></g><mask></mask><g stroke-linecap="round"><g transform="translate(382.78856945763323 560.7710884982815) rotate(0 -10.018370649777353 9.491096453145417)"><path d="M0 0 C-6.14 5.82, -12.28 11.64, -20.04 18.98 M0 0 C-4.69 4.44, -9.38 8.88, -20.04 18.98" stroke="#1e1e1e" stroke-width="4" fill="none"></path></g></g><mask></mask><g stroke-linecap="round"><g transform="translate(426.0256972365346 559.7164596481323) rotate(0 -10.018370649777353 9.491096453145417)"><path d="M0 0 C-4.75 4.5, -9.5 9, -20.04 18.98 M0 0 C-5.01 4.75, -10.02 9.49, -20.04 18.98" stroke="#1e1e1e" stroke-width="4" fill="none"></path></g></g><mask></mask><g stroke-linecap="round"><g transform="translate(461.8809058057029 560.7710884982814) rotate(0 -10.018370649777353 9.491096453145417)"><path d="M0 0 C-5.96 5.65, -11.92 11.29, -20.04 18.98 M0 0 C-4.18 3.96, -8.36 7.92, -20.04 18.98" stroke="#1e1e1e" stroke-width="4" fill="none"></path></g></g><mask></mask><g stroke-linecap="round"><g transform="translate(505.11803358460406 560.7710080413963) rotate(0 -10.018370649777353 9.491096453145417)"><path d="M0 0 C-4.69 4.44, -9.38 8.89, -20.04 18.98 M0 0 C-6.22 5.89, -12.44 11.79, -20.04 18.98" stroke="#1e1e1e" stroke-width="4" fill="none"></path></g></g><mask></mask><g stroke-linecap="round"><g transform="translate(552.5735158503308 560.7710080413963) rotate(0 -10.018370649777353 9.491096453145417)"><path d="M0 0 C-5.75 5.45, -11.5 10.89, -20.04 18.98 M0 0 C-7.64 7.24, -15.28 14.48, -20.04 18.98" stroke="#1e1e1e" stroke-width="4" fill="none"></path></g></g><mask></mask><g stroke-linecap="round"><g transform="translate(591.5922891424061 559.7165401050174) rotate(0 -10.018370649777353 9.491096453145417)"><path d="M0 0 C-5 4.73, -9.99 9.47, -20.04 18.98 M0 0 C-7.11 6.74, -14.23 13.48, -20.04 18.98" stroke="#1e1e1e" stroke-width="4" fill="none"></path></g></g><mask></mask><g stroke-linecap="round"><g transform="translate(68.52832085188288 561.8256368915454) rotate(0 -10.018370649777353 9.491096453145417)"><path d="M0 0 C-7.24 6.86, -14.48 13.72, -20.04 18.98 M0 0 C-5.61 5.31, -11.21 10.62, -20.04 18.98" stroke="#1e1e1e" stroke-width="4" fill="none"></path></g></g><mask></mask><g stroke-linecap="round"><g transform="translate(107.54725505772831 563.9347336780731) rotate(0 -10.018370649777353 9.491096453145417)"><path d="M0 0 C-7.12 6.74, -14.23 13.48, -20.04 18.98 M0 0 C-4.59 4.35, -9.18 8.7, -20.04 18.98" stroke="#1e1e1e" stroke-width="4" fill="none"></path></g></g><mask></mask></svg>